PathFileType	3	(X/Y/Z)	random_1__view1_aligned.trc
DataRate	CameraRate	NumFrames	NumMarkers	Units	OrigDataRate	OrigDataStartFrame	OrigNumFrames
100.0	100.0	12	19	mm	100.0	166	1930
Frame#	Time	pelvis			neck			head			hip_left			hip_right			knee_left			knee_right			ankle_left			ankle_right			heel_left			heel_right			toe_left			toe_right			shoulder_left			shoulder_right			elbow_left			elbow_right			wrist_left			wrist_right			
		X1	Y1	Z1	X2	Y2	Z2	X3	Y3	Z3	X4	Y4	Z4	X5	Y5	Z5	X6	Y6	Z6	X7	Y7	Z7	X8	Y8	Z8	X9	Y9	Z9	X10	Y10	Z10	X11	Y11	Z11	X12	Y12	Z12	X13	Y13	Z13	X14	Y14	Z14	X15	Y15	Z15	X16	Y16	Z16	X17	Y17	Z17	X18	Y18	Z18	X19	Y19	Z19	
166	1.65000	121.670892	950.581135	35.371855	156.831003	1531.677335	31.646986	178.336565	1678.267253	-71.942611	43.950291	955.867081	25.126278	199.391661	945.295200	45.617257	-1.718679	532.362365	-27.721043	250.371001	522.488402	-5.399874	-36.125562	137.177454	48.983988	263.236156	123.320174	55.946812	-34.525038	91.510965	85.374656	256.749048	78.740419	93.431917	-37.677447	72.738542	-138.002903	301.426242	43.951872	-122.489696	-32.807681	1476.856570	29.171725	334.011793	1472.408269	77.496201	-125.254206	1232.856446	-114.965886	380.392974	1214.468504	-56.326319	-15.709015	1290.401798	-337.514291	370.747457	1340.671465	-278.211933
167	1.66000	122.322197	950.628911	35.237366	156.837854	1531.607391	31.989555	178.379730	1678.743084	-71.111915	44.599377	955.851758	25.004508	200.045151	945.406074	45.470083	-0.973222	532.426528	-27.379364	250.695085	522.606637	-5.157152	-35.517778	137.333834	48.514522	263.554600	123.598895	55.598470	-33.986323	91.636474	84.861943	257.040380	78.996235	93.041673	-36.825951	72.974218	-138.533896	301.847293	44.364593	-122.891682	-33.171749	1476.435223	29.159162	334.644235	1471.906419	77.193629	-123.753512	1230.217453	-111.065516	379.843503	1212.526738	-54.634751	-11.961980	1286.327946	-333.122497	364.821306	1332.409079	-276.848934
168	1.67000	122.973503	950.676688	35.102878	156.844704	1531.537446	32.332123	178.422895	1679.218915	-70.281220	45.248462	955.836435	24.882738	200.698642	945.516948	45.322910	-0.227766	532.490691	-27.037686	251.019170	522.724873	-4.914430	-34.909994	137.490213	48.045055	263.873044	123.877616	55.250129	-33.447608	91.761984	84.349231	257.331713	79.252051	92.651429	-35.974456	73.209894	-139.064888	302.268344	44.777313	-123.293668	-33.535818	1476.013876	29.146599	335.276677	1471.404569	76.891057	-122.252819	1227.578460	-107.165146	379.294032	1210.584973	-52.943184	-8.214945	1282.254094	-328.730704	358.895155	1324.146692	-275.485935
169	1.68000	123.624808	950.724464	34.968389	156.851555	1531.467502	32.674692	178.466061	1679.694745	-69.450524	45.897548	955.821112	24.760968	201.352132	945.627821	45.175737	0.517691	532.554853	-26.696008	251.343255	522.843109	-4.671707	-34.302210	137.646592	47.575589	264.191488	124.156337	54.901787	-32.908893	91.887493	83.836518	257.623045	79.507867	92.261185	-35.122961	73.445570	-139.595880	302.689394	45.190034	-123.695654	-33.899886	1475.592530	29.134036	335.909119	1470.902719	76.588485	-120.752125	1224.939467	-103.264776	378.744561	1208.643207	-51.251616	-4.467910	1278.180242	-324.338910	352.969004	1315.884305	-274.122937
170	1.69000	124.276113	950.772241	34.833900	156.858406	1531.397558	33.017261	178.509226	1680.170576	-68.619829	46.546633	955.805789	24.639198	202.005623	945.738695	45.028564	1.263147	532.619016	-26.354329	251.667339	522.961344	-4.428985	-33.694426	137.802972	47.106123	264.509932	124.435058	54.553445	-32.370178	92.013003	83.323805	257.914377	79.763682	91.870941	-34.271465	73.681246	-140.126872	303.110445	45.602755	-124.097641	-34.263954	1475.171183	29.121473	336.541561	1470.400870	76.285913	-119.251431	1222.300473	-99.364405	378.195091	1206.701441	-49.560049	-0.720875	1274.106390	-319.947117	347.042852	1307.621918	-272.759938
171	1.70000	124.927418	950.820017	34.699412	156.865256	1531.327613	33.359830	178.552391	1680.646406	-67.789133	47.195719	955.790466	24.517428	202.659113	945.849569	44.881390	2.008604	532.683179	-26.012651	251.991424	523.079580	-4.186263	-33.086643	137.959351	46.636656	264.828376	124.713779	54.205104	-31.831463	92.138512	82.811093	258.205709	80.019498	91.480697	-33.419970	73.916922	-140.657864	303.531496	46.015475	-124.499627	-34.628022	1474.749837	29.108910	337.174003	1469.899020	75.983341	-117.750738	1219.661480	-95.464035	377.645620	1204.759675	-47.868481	3.026160	1270.032538	-315.555323	341.116701	1299.359531	-271.396939
172	1.71000	125.578724	950.867794	34.564923	156.872107	1531.257669	33.702399	178.595557	1681.122237	-66.958438	47.844804	955.775143	24.395658	203.312604	945.960442	44.734217	2.754060	532.747341	-25.670972	252.315509	523.197815	-3.943541	-32.478859	138.115730	46.167190	265.146821	124.992500	53.856762	-31.292748	92.264022	82.298380	258.497041	80.275314	91.090454	-32.568475	74.152598	-141.188856	303.952547	46.428196	-124.901613	-34.992090	1474.328490	29.096347	337.806445	1469.397170	75.680769	-116.250044	1217.022487	-91.563665	377.096149	1202.817909	-46.176914	6.773196	1265.958686	-311.163530	335.190550	1291.097145	-270.033940
173	1.72000	126.230029	950.915571	34.430435	156.878958	1531.187725	34.044968	178.638722	1681.598067	-66.127742	48.493890	955.759820	24.273887	203.966094	946.071316	44.587044	3.499517	532.811504	-25.329294	252.639593	523.316051	-3.700819	-31.871075	138.272109	45.697724	265.465265	125.271221	53.508420	-30.754033	92.389531	81.785668	258.788373	80.531129	90.700210	-31.716980	74.388274	-141.719849	304.373598	46.840916	-125.303600	-35.356158	1473.907143	29.083784	338.438887	1468.895320	75.378197	-114.749350	1214.383493	-87.663295	376.546678	1200.876144	-44.485346	10.520231	1261.884834	-306.771736	329.264399	1282.834758	-268.670942
174	1.73000	126.881334	950.963347	34.295946	156.885808	1531.117780	34.387536	178.681887	1682.073898	-65.297047	49.142975	955.744497	24.152117	204.619585	946.182190	44.439871	4.244974	532.875667	-24.987615	252.963678	523.434287	-3.458097	-31.263291	138.428489	45.228257	265.783709	125.549942	53.160079	-30.215318	92.515041	81.272955	259.079705	80.786945	90.309966	-30.865484	74.623949	-142.250841	304.794649	47.253637	-125.705586	-35.720227	1473.485797	29.071221	339.071329	1468.393470	75.075625	-113.248657	1211.744500	-83.762924	375.997207	1198.934378	-42.793779	14.267266	1257.810982	-302.379943	323.338248	1274.572371	-267.307943
175	1.74000	127.532640	951.011124	34.161457	156.892659	1531.047836	34.730105	178.725052	1682.549728	-64.466351	49.792061	955.729174	24.030347	205.273075	946.293063	44.292698	4.990430	532.939829	-24.645937	253.287762	523.552522	-3.215374	-30.655507	138.584868	44.758791	266.102153	125.828663	52.811737	-29.676603	92.640550	80.760243	259.371037	81.042761	89.919722	-30.013989	74.859625	-142.781833	305.215699	47.666358	-126.107572	-36.084295	1473.064450	29.058658	339.703771	1467.891620	74.773053	-111.747963	1209.105507	-79.862554	375.447737	1196.992612	-41.102211	18.014301	1253.737130	-297.988149	317.412097	1266.309984	-265.944944
176	1.75000	128.183945	951.058900	34.026969	156.899509	1530.977891	35.072674	178.768218	1683.025559	-63.635656	50.441146	955.713851	23.908577	205.926566	946.403937	44.145524	5.735887	533.003992	-24.304259	253.611847	523.670758	-2.972652	-30.047723	138.741247	44.289325	266.420597	126.107384	52.463395	-29.137888	92.766060	80.247530	259.662369	81.298577	89.529478	-29.162494	75.095301	-143.312825	305.636750	48.079078	-126.509559	-36.448363	1472.643103	29.046095	340.336213	1467.389770	74.470481	-110.247269	1206.466514	-75.962184	374.898266	1195.050846	-39.410643	21.761336	1249.663278	-293.596356	311.485946	1258.047597	-264.581945
177	1.76000	128.379554	951.039695	34.186871	156.658958	1530.890495	35.600032	178.555816	1683.340653	-62.722761	50.635983	955.647909	24.063406	206.122967	946.431470	44.310485	6.104190	533.023343	-24.036525	253.758863	523.794867	-2.833912	-29.719989	138.827184	44.070425	266.633196	126.341353	52.213975	-28.861379	92.830393	80.003967	259.859537	81.520920	89.256589	-28.634834	75.248431	-143.574026	305.936323	48.380237	-126.787466	-36.946998	1472.386543	29.292983	340.547469	1467.021771	74.509087	-109.404746	1204.793636	-73.151516	374.235397	1193.830771	-38.200852	24.468694	1246.989972	-290.237215	306.688763	1252.422354	-263.514227
